<svg xmlns="http://www.w3.org/2000/svg" width="1600" height="720" viewBox="0 0 1600 720"><defs><linearGradient id="g" x1="0" y1="0" x2="1" y2="1"><stop offset="0" stop-color="#063b5d"/><stop offset=".55" stop-color="#08796f"/><stop offset="1" stop-color="#0b513f"/></linearGradient><pattern id="grid" width="44" height="44" patternUnits="userSpaceOnUse"><path d="M44 0H0V44" fill="none" stroke="#fff" stroke-opacity=".055"/></pattern></defs><rect width="1600" height="720" fill="url(#g)"/><rect width="1600" height="720" fill="url(#grid)"/><g opacity=".18" stroke="#fff" stroke-width="8" fill="none" stroke-linecap="round" stroke-linejoin="round"><path d="M160 430h260v125H160z"/><path d="M205 430v-78h170v78"/><path d="M240 555v-75h55v75M335 555v-75h55v75"/><path d="M1080 395l190-80 190 80-190 80z"/><path d="M1180 440v110h180V440"/><path d="M1268 475v75"/><path d="M625 445c60-55 155-55 215 0"/><path d="M655 485h155M675 520h115"/></g><text x="800" y="650" text-anchor="middle" font-family="Arial" font-size="36" fill="#fff" opacity=".22">Education • Attendance • Results • Library • Digital School ERP</text></svg>